<svg xmlns="http://www.w3.org/2000/svg" xmlns:xlink="http://www.w3.org/1999/xlink" xmlns:inkscape="http://www.inkscape.org/namespaces/inkscape" version="1.1" width="2418.96" height="1404" viewBox="0 0 2418.96 1404">
<defs>
<clipPath id="clip_1">
<path transform="matrix(.24,0,0,.24,0,0)" d="M0 0H10079.166V5848.791H0Z" clip-rule="evenodd"></path>
</clipPath>
</defs>
<g clip-path="url(#clip_1)">
<path transform="matrix(.74994328,0,0,.7497727,.0049710709,0)" d="M0 0H3225.564V1872.1804H0Z" fill="#1E2F4A"></path>
<path transform="matrix(5.970358,0,0,5.9690005,54.73325,425.93067)" d="M78.19223 59.916734C75.60655 55.135015 74.29422 52.605447 74.29422 52.605447 68.313289 42.383729 65.117938 36.78397 63.471284 33.79313 65.70304 38.658849 70.83651 48.78151 70.83651 48.78151L67.7921 42.8497 62.084249 32.824834 65.293918 39.242479C63.094385 35.768445 55.907728 22.1718 55.907728 22.1718 57.10029 25.166075 62.08879 34.77046 68.24096 46.30171 71.33799 52.05616 74.70129 58.305379 78.01287 64.45839 79.62919 67.43961 81.23289 70.39754 82.78513 73.26053 83.78459 75.15242 84.750888 76.9816 85.65905 78.70074 83.5887 78.63094 81.657238 78.5658 79.92452 78.50737 79.48666 78.49326 79.06136 78.47958 78.64959 78.466327 78.0201 78.45317 77.41133 78.44049 76.82464 78.42828 75.6512 78.40424 74.56615 78.38206 73.58105 78.36188 69.64062 78.28432 67.29971 78.238307 67.29971 78.238307 68.888408 77.835628 80.670078 77.68093 83.867649 77.6654 81.22544 73.01391 78.20258 67.6922 75.15427 62.325849 71.179019 55.236719 67.17075 48.08873 63.593114 41.708703 56.49368 28.917475 51.103395 19.205739 51.103395 19.205739 51.92693 21.367337 57.26914 31.443293 64.03626 43.936025 67.43739 50.172826 71.1741 57.025007 74.86897 63.80048 76.72621 67.1828 78.57293 70.545948 80.361759 73.80353 80.59601 74.282817 80.826457 74.75428 81.051578 75.21481 81.23627 75.603229 81.41659 75.98245 81.59125 76.34974 80.692958 76.28713 79.854259 76.22875 79.101459 76.17629L78.977519 76.16678 78.91681 76.16208 78.802539 76.15743C78.450839 76.151309 78.10448 76.145229 77.76372 76.13926 77.08214 76.127429 76.42285 76.11596 75.7874 76.10492 74.51643 76.0831 73.340938 76.062969 72.273479 76.044689 68.003589 75.974 65.462818 75.93189 65.462818 75.93189 66.34489 75.84963 69.180988 75.81825 73.37797 75.824489 74.42725 75.828029 75.56154 75.83189 76.771648 75.836009 77.37667 75.83944 78.00066 75.84298 78.642459 75.84663 78.76128 75.84879 78.88173 75.85095 79.00378 75.85312L79.18176 75.86036C79.70353 75.885509 80.27664 75.91314 80.88679 75.942569 80.73844 75.64243 80.58486 75.33167 80.42726 75.01284 80.341419 74.83929 80.2544 74.66351 80.16649 74.4859L80.027599 74.20584 79.991939 74.134098 79.806339 73.80194 79.433139 73.133998C77.4417 69.56227 75.38308 65.8702 73.31721 62.164976 69.19842 54.74739 65.050579 47.277399 61.350629 40.614088 53.973146 27.275105 48.381994 17.16597 48.381994 17.16597 49.43408 19.555695 54.199899 28.324812 60.905263 40.394628 64.274219 46.42047 68.11009 53.28148 72.196239 60.590074 74.24937 64.238719 76.36532 67.9991 78.51693 71.82282 78.97947 72.646099 79.44386 73.47275 79.909839 74.30215L80.182659 74.83575 80.68725 75.82723 79.5165 75.77329 78.97556 75.74746C78.05561 75.73906 77.13687 75.73071 76.22003 75.72237 71.82588 75.69093 67.4683 75.65981 63.200365 75.62927 54.664445 75.57591 46.487356 75.52477 39.094655 75.478549 31.701899 75.439029 25.093586 75.40369 19.695166 75.37479 19.153168 75.37151 18.626334 75.368289 18.1154 75.36512 18.055542 75.36205 17.997534 75.35909 17.941479 75.356189 17.834179 75.35054 17.734223 75.34531 17.642296 75.3405 17.470858 75.33125 17.329323 75.32359 17.222126 75.31778 17.33133 75.14545 17.382102 75.0653 17.382102 75.0653 17.437733 74.96909 17.48586 74.87675 17.531086 74.78154L17.597178 74.6361 17.62935 74.5606 17.645413 74.52193 17.653443 74.50238C17.653443 74.50238 17.65302 74.49927 17.703 74.410778 18.860905 72.31542 19.96899 70.31021 21.018012 68.411869 23.093707 64.60304 24.893038 61.200326 26.369624 58.3562 29.322794 52.668 30.98503 49.2142 30.98503 49.2142 49.113607 15.533321 50.334329 12.264904 50.334329 12.264904L48.778337 10.922933 46.365316 11.037418 43.701555 10.108959C40.74685 8.308782 41.87427 10.470221 41.87427 10.470221 35.57275 23.348252 29.413348 35.630235 23.45951 47.262819 20.458106 53.066507 17.533833 58.720949 14.690973 64.21795 13.972995 65.588459 13.260193 66.94913 12.552568 68.299869 11.756822 69.79695 10.9668869 71.28299 10.182868 72.75789 8.428442 76.012149 6.7005908 79.21716 5 82.37157 14.501678 82.12606 23.557459 81.89212 32.133005 81.67055 39.902025 81.49383 47.236768 81.37036 54.105066 81.288738 67.913669 81.125438 79.451839 81.129398 90 81.20965 87.3728 76.51705 85.04087 72.35198 83.020709 68.74365 81.11133 65.25313 79.49658 62.30128 78.19223 59.916734Z" fill="#5DCAA5"></path>
<path transform="matrix(8.458007,0,0,8.456083,2325.9569,84.56084)" d="M-185 0H-182V146H-185Z" fill="#5DCAA5"></path>
<path transform="matrix(27.52063,0,0,27.514372,885.9491,232.34967)" d="M1 20V6H3.32V17.92H10.94V20H.99999907 1ZM12.940001 20V6H15.26V20H12.940001ZM26.52 6H28.84V20H25.94L17.080002 10.48V7.4199998L26.52 17.48V6ZM33.16 15.76V20H30.84V6H33.16V13.26L42.98 6H46.32L33.16 15.76ZM40.14 12.38 47.1 20H44.1L38.379999 13.7 40.14 12.38Z" fill="#5DCAA5"></path>
<path transform="matrix(4.815974,0,0,4.8148787,908.65377,921.2555)" d="M1.24 20C1.1 20 1 19.88 1 19.74V7.76C1 7.6200006 1.1 7.5 1.24 7.5H6.1400005C7.6600005 7.5 8.860001 7.88 9.700001 8.66 10.940001 9.78 11.360001 11.9 10.76 13.46 10.54 14.02 10.16 14.54 9.68 14.92 8.06 16.18 6.04 16.06 4.1000006 16.06V19.74C4.1000006 19.88 3.9800006 20 3.8400005 20H1.2400005 1.24ZM4.1 13.28C4.1 13.28 6.62 13.559999 7.5 12.98 7.84 12.759999 8.04 12.219999 8.04 11.82 8.0199999 11.38 7.8 10.92 7.44 10.639999 7.06 10.32 6.12 10.219999 5.6400005 10.219999L4.1000006 10.259999V13.279999L4.1 13.28ZM16.268 20C16.128 20 16.008 19.88 16.008 19.74V7.76C16.008 7.6200006 16.128 7.5 16.268 7.5H18.868C19.008 7.5 19.128 7.62 19.128 7.76V12.68H23.648V7.76C23.648 7.6200006 23.768002 7.5 23.908 7.5H26.508002C26.648 7.5 26.768002 7.62 26.768002 7.76V19.74C26.768002 19.88 26.648 20 26.508002 20H23.908C23.768002 20 23.648 19.88 23.648 19.74V15.44H19.128V19.74C19.128 19.88 19.008 20 18.868 20H16.268ZM31.976 20C31.896 20 31.816 19.96 31.776 19.88 31.716 19.82 31.716 19.72 31.735999 19.64L36.395998 7.66C36.435998 7.56 36.535997 7.5 36.635999 7.5H39.315999C39.415998 7.5 39.516 7.56 39.556 7.66L44.136 19.64C44.156003 19.72 44.156003 19.8 44.096 19.88 44.056 19.96 43.976 20 43.896 20H41.116C41.016004 20 40.916 19.94 40.876 19.84L40.135999 18 35.635999 18.02 34.895998 19.84C34.855997 19.94 34.755998 20 34.655996 20H31.975995 31.976ZM36.456 15.5H39.336004L37.896005 11.26 36.456 15.5ZM49.164 20C49.004 20 48.904005 19.88 48.904005 19.74V7.76C48.904005 7.6200006 49.004 7.5 49.164 7.5H54.044004C55.564004 7.5 56.764005 7.88 57.604005 8.66 58.844007 9.78 59.264005 11.9 58.664007 13.46 58.444005 14.02 58.064008 14.54 57.584005 14.92 57.304006 15.14 57.004 15.3 56.704004 15.46 57.564004 16.82 58.864004 19.58 58.864004 19.58 58.884004 19.62 58.924005 19.68 58.924005 19.74 58.924005 19.88 58.804006 20 58.664007 20H55.704008C55.624006 20 55.524007 19.94 55.484006 19.86L53.744005 16.04C53.124006 16.080002 52.644006 16.060002 52.004 16.060002V19.740002C52.004 19.880002 51.884004 20.000002 51.744005 20.000002H49.164V20ZM52.004 13.28C52.004 13.28 54.524003 13.559999 55.404005 12.98 55.744005 12.759999 55.944005 12.219999 55.944005 11.82 55.924005 11.38 55.704004 10.92 55.344007 10.639999 54.964006 10.32 54.024007 10.219999 53.544008 10.219999L52.004007 10.259999V13.279999L52.004 13.28ZM64.152 20C64.012 20 63.892004 19.88 63.892004 19.74V7.76C63.892004 7.6200006 64.012 7.5 64.152 7.5H67.032C67.131999 7.5 67.231998 7.56 67.271999 7.64L70.271999 15.04 73.252 7.64C73.292 7.56 73.392 7.5 73.492 7.5H76.371997C76.51199 7.5 76.631999 7.62 76.631999 7.76V19.74C76.631999 19.88 76.51199 20 76.371997 20H74.032C73.892 20 73.771999 19.88 73.771999 19.74V13.299999L71.33199 19.5C71.29199 19.58 71.19199 19.64 71.11199 19.64H69.43199C69.33199 19.64 69.231998 19.58 69.19199 19.5L66.731998 13.3V19.74C66.731998 19.88 66.61199 20 66.47199 20H64.15199 64.152ZM81.84 20C81.759998 20 81.67999 19.96 81.64 19.88 81.58 19.82 81.58 19.72 81.6 19.64L86.259998 7.66C86.299999 7.56 86.399997 7.5 86.49999 7.5H89.17999C89.27999 7.5 89.37999 7.56 89.41999 7.66L93.99999 19.64C94.01999 19.72 94.01999 19.8 93.95999 19.88 93.91999 19.96 93.83999 20 93.759998 20H90.979999C90.88 20 90.78 19.94 90.74 19.84L90 18 85.5 18.02 84.76 19.84C84.72 19.94 84.62 20 84.520008 20H81.840007 81.84ZM86.32 15.5H89.2L87.759998 11.26 86.32 15.5ZM103.868 20C102.687999 20 101.607997 19.72 100.647998 19.16 99.687999 18.58 98.92799 17.8 98.38799 16.82 97.84799 15.84 97.56799 14.74 97.56799 13.5199999 97.56799 12.339999 97.84799 11.24 98.40799 10.259999 98.96799 9.299999 99.747989 8.5199999 100.70799 7.959999 101.687999 7.399999 102.787998 7.119999 103.94799 7.119999 104.82799 7.119999 105.68799 7.3199989 106.52799 7.679999 107.36799 8.0599989 108.08799 8.5599989 108.687999 9.199999 108.768 9.299999 108.768 9.439999 108.687999 9.539999L106.787998 11.099998C106.728 11.159999 106.66799 11.199999 106.588 11.199999 106.508 11.199999 106.42799 11.159999 106.388 11.099998 105.368007 9.859999 103.728 9.599998 102.348 10.459998 101.148 11.199998 100.708 12.559998 100.768 13.919998 100.827999 15.299998 101.827999 16.479998 103.147998 16.879998 104.34799 17.239998 105.52799 16.959998 106.38799 16.039998 106.44799 15.999997 106.507999 15.959997 106.58799 15.979997 106.66799 15.979997 106.72799 15.999997 106.76799 16.059998L108.70799 17.419999C108.787998 17.519999 108.787998 17.659998 108.70799 17.759999 108.06799 18.439999 107.30799 18.999999 106.467998 19.399998 105.607997 19.799998 104.728 19.999999 103.868 19.999999V20ZM117.616 20C117.476 20 117.376 19.88 117.376 19.74V14.98L113.136 7.8799998C113.096 7.7999999 113.096 7.7 113.156 7.62 113.196 7.54 113.276 7.5 113.376 7.5H115.976C116.076 7.5 116.156 7.54 116.196 7.64L118.916 12.08 121.576007 7.64C121.616008 7.56 121.69601 7.5 121.796009 7.5H124.41601C124.49601 7.5 124.59601 7.54 124.63601 7.62 124.67601 7.7 124.67601 7.7999999 124.63601 7.88L120.47601 14.9V19.74C120.47601 19.88 120.35601 20 120.21601 20H117.61601 117.616ZM143.292 20.12C142.332 20.12 141.37201 19.94 140.45201 19.58 139.53202 19.24 138.712 18.74 138.03202 18.14 137.95201 18.06 137.932 17.939999 137.97202 17.84L138.67201 15.46C138.712 15.38 138.77202 15.32 138.852 15.32 138.932 15.299999 139.01201 15.32 139.072 15.38 140.132 16.380002 141.332 17.28 142.832 17.36 143.232 17.380002 143.672 17.400002 144.052 17.28 145.232 16.900002 144.732 15.700001 143.852 15.34 143.552 15.22 143.132 15.08 142.59201 14.92 141.792 14.7 141.132 14.46 140.632 14.22 140.09201 13.9800009 139.632 13.6 139.23201 13.1 138.852 12.58 138.65201 11.900001 138.65201 11.08 138.65201 10.3 138.852 9.62 139.25202 9.04 139.65203 8.46 140.21202 8 140.91202 7.7 141.61202 7.3999998 142.43202 7.24 143.35202 7.24 144.17203 7.24 144.97202 7.3599998 145.77202 7.62 146.55202 7.8599998 147.25202 8.2 147.87203 8.6 147.97203 8.68 148.01203 8.8 147.95203 8.92L147.29203 11.16C147.27202 11.24 147.21202 11.28 147.13202 11.3 147.07202 11.320001 146.99202 11.320001 146.93202 11.28 146.03203 10.719999 145.13202 10.04 144.07202 9.9 143.37203 9.799999 142.31203 9.839999 142.07202 10.679999 141.77202 11.759999 143.35202 12.039999 144.07202 12.259999 144.87203 12.499999 145.53203 12.74 146.05202 12.98 146.59201 13.24 147.07202 13.639999 147.45201 14.139999 147.852 14.66 148.05202 15.36 148.05202 16.199999 148.05202 17.019999 147.83202 17.72 147.41202 18.32 147.01203 18.92 146.43202 19.36 145.71202 19.68 144.99202 19.960001 144.19202 20.12 143.29203 20.12H143.292ZM159.44 20C158.24 20 157.14 19.72 156.18001 19.16 155.20001 18.6 154.42002 17.8 153.84001 16.84 153.28002 15.860001 153.00002 14.74 153.00002 13.54 153.00002 12.36 153.28002 11.26 153.84001 10.28 154.42002 9.299999 155.18001 8.5199999 156.16002 7.96 157.14003 7.4000008 158.24002 7.12 159.44002 7.12 160.62001 7.12 161.72002 7.4 162.70001 7.96 163.68001 8.52 164.46 9.3 165.02002 10.28 165.60002 11.26 165.88002 12.36 165.88002 13.54 165.88002 14.74 165.60002 15.84 165.02002 16.82 164.46002 17.8 163.68003 18.58 162.70001 19.16 161.72002 19.72 160.62001 20 159.44002 20H159.44ZM159.48 17.12C160.06 17.12 160.59999 16.960001 161.08 16.660002 161.58 16.340003 161.98 15.920002 162.26 15.360002 162.56 14.820002 162.7 14.200002 162.7 13.540002 162.7 12.900002 162.56 12.280002 162.26 11.740002 161.98 11.200002 161.58 10.780002 161.08 10.460002 160.6 10.160002 160.06 10.000002 159.48 10.000002 158.87999 10.000002 158.34 10.160002 157.84 10.460002 157.31999 10.780002 156.92 11.200002 156.62 11.740002 156.31999 12.300002 156.18 12.900002 156.18 13.540002 156.18 14.200002 156.31999 14.820002 156.62 15.360002 156.94 15.900002 157.34 16.340003 157.84 16.640002 158.34 16.960001 158.87999 17.12 159.48 17.12ZM171.088 20C170.948 20 170.828 19.88 170.828 19.74V7.76C170.828 7.6200006 170.948 7.5 171.088 7.5H173.688C173.828 7.5 173.948 7.62 173.948 7.76V17.119999H178.448C178.588 17.119999 178.708 17.24 178.708 17.38V19.74C178.708 19.88 178.588 20 178.448 20H171.088ZM188.876 20C187.796 20 187.016 19.78 186.19602 19.34 185.39601 18.9 184.75601 18.28 184.31601 17.460001 183.876 16.660002 183.656 15.700001 183.656 14.6V7.5600006C183.656 7.4200007 183.776 7.3200008 183.916 7.3200008H186.516C186.656 7.3200008 186.75601 7.4200007 186.75601 7.5600006V14.6C186.75601 15.400001 186.97602 16.02 187.39601 16.460001 187.81601 16.900002 188.19602 17.12 188.89601 17.12 189.59601 17.12 189.95601 16.900002 190.35602 16.480002 190.75601 16.04 190.95603 15.400002 190.95603 14.600001V7.5600016C190.95603 7.4200017 191.07602 7.3200018 191.21602 7.3200018H193.81603C193.95603 7.3200018 194.07602 7.4200017 194.07602 7.5600016V14.600001C194.07602 15.700002 193.85602 16.660002 193.41602 17.460001 192.99602 18.28 192.35602 18.900002 191.55602 19.34 190.75601 19.779999 189.95601 20 188.87602 20H188.876ZM202.264 20C202.12401 20 202.024 19.88 202.024 19.74V10.3H199.284C199.144 10.3 199.024 10.2 199.024 10.06V7.76C199.024 7.6200006 199.144 7.5 199.284 7.5H207.864C208.024 7.5 208.124 7.62 208.124 7.76V10.06C208.124 10.200001 208.02399 10.3 207.864 10.3H205.124V19.74C205.124 19.88 205.004 20 204.864 20H202.26399 202.264ZM213.332 20C213.192 20 213.072 19.88 213.072 19.74V7.76C213.072 7.6200006 213.192 7.5 213.332 7.5H215.932C216.072 7.5 216.192 7.62 216.192 7.76V19.74C216.192 19.88 216.072 20 215.932 20H213.332ZM227.58 20C226.38 20 225.28 19.72 224.32 19.16 223.34001 18.6 222.56002 17.8 221.98001 16.84 221.42002 15.860001 221.14002 14.74 221.14002 13.54 221.14002 12.36 221.42002 11.26 221.98001 10.28 222.56002 9.299999 223.32 8.5199999 224.30002 7.96 225.28003 7.4000008 226.38002 7.12 227.58002 7.12 228.76001 7.12 229.86002 7.4 230.84001 7.96 231.82 8.52 232.6 9.3 233.16002 10.28 233.74002 11.26 234.02002 12.36 234.02002 13.54 234.02002 14.74 233.74002 15.84 233.16002 16.82 232.60002 17.8 231.82003 18.58 230.84001 19.16 229.86002 19.72 228.76001 20 227.58002 20H227.58ZM227.62 17.12C228.2 17.12 228.73999 16.960001 229.22 16.660002 229.72 16.340003 230.12 15.920002 230.4 15.360002 230.7 14.820002 230.84 14.200002 230.84 13.540002 230.84 12.900002 230.7 12.280002 230.4 11.740002 230.12 11.200002 229.72 10.780002 229.22 10.460002 228.74 10.160002 228.2 10.000002 227.62 10.000002 227.01999 10.000002 226.48 10.160002 225.98 10.460002 225.45999 10.780002 225.06 11.200002 224.76 11.740002 224.45999 12.300002 224.31999 12.900002 224.31999 13.540002 224.31999 14.200002 224.45999 14.820002 224.76 15.360002 225.08 15.900002 225.48 16.340003 225.98 16.640002 226.48 16.960001 227.01999 17.12 227.62 17.12ZM239.228 20C239.088 20 238.968 19.88 238.968 19.74V7.76C238.968 7.6200006 239.088 7.5 239.228 7.5H241.588C241.668 7.5 241.748 7.54 241.808 7.6L246.408 14.7V7.7599999C246.408 7.62 246.528 7.5 246.668 7.5H249.128C249.268 7.5 249.388 7.62 249.388 7.76V19.74C249.388 19.88 249.268 20 249.128 20H246.768C246.688 20 246.608 19.96 246.548 19.9L241.968 12.84V19.74C241.968 19.88 241.848 20 241.70801 20H239.22801 239.228ZM259.676 20.12C258.716 20.12 257.75599 19.94 256.836 19.58 255.916 19.24 255.096 18.74 254.416 18.14 254.336 18.06 254.316 17.939999 254.356 17.84L255.056 15.46C255.096 15.38 255.156 15.32 255.236 15.32 255.316 15.299999 255.396 15.32 255.456 15.38 256.516 16.380002 257.716 17.28 259.216 17.36 259.616 17.380002 260.056 17.400002 260.436 17.28 261.616 16.900002 261.116 15.700001 260.236 15.34 259.936 15.22 259.516 15.08 258.97599 14.92 258.176 14.7 257.516 14.46 257.016 14.22 256.47599 13.9800009 256.016 13.6 255.616 13.1 255.236 12.58 255.036 11.900001 255.036 11.08 255.036 10.3 255.236 9.62 255.636 9.04 256.036 8.46 256.596 8 257.296 7.7 257.99598 7.3999998 258.81599 7.24 259.736 7.24 260.556 7.24 261.356 7.3599998 262.156 7.62 262.936 7.8599998 263.63603 8.2 264.256 8.6 264.35603 8.68 264.39604 8.8 264.336 8.92L263.676 11.16C263.656 11.24 263.596 11.28 263.516 11.3 263.456 11.320001 263.37599 11.320001 263.31599 11.28 262.416 10.719999 261.516 10.04 260.456 9.9 259.75599 9.799999 258.69599 9.839999 258.456 10.679999 258.156 11.759999 259.736 12.039999 260.456 12.259999 261.25599 12.499999 261.916 12.74 262.436 12.98 262.976 13.24 263.456 13.639999 263.836 14.139999 264.236 14.66 264.436 15.36 264.436 16.199999 264.436 17.019999 264.216 17.72 263.796 18.32 263.396 18.92 262.81599 19.36 262.09599 19.68 261.37599 19.960001 260.576 20.12 259.67597 20.12H259.676Z" fill="#5DCAA5"></path>
</g>
</svg>